<?xml version="1.0" standalone="no"?>
<!DOCTYPE svg PUBLIC "-//W3C//DTD SVG 20010904//EN"
 "http://www.w3.org/TR/2001/REC-SVG-20010904/DTD/svg10.dtd">
<svg version="1.0" xmlns="http://www.w3.org/2000/svg"
 width="500.000000pt" height="500.000000pt" viewBox="0 0 500.000000 500.000000"
 preserveAspectRatio="xMidYMid meet">

<g transform="translate(0.000000,500.000000) scale(0.100000,-0.100000)"
fill="#000000" stroke="none">
<path d="M2260 4085 c-53 -13 -129 -39 -170 -58 -111 -51 -340 -234 -324 -259
3 -5 -10 -34 -30 -63 -41 -63 -76 -149 -106 -268 -9 -32 -16 -45 -23 -38 -7 7
-6 15 3 26 9 11 9 15 1 15 -7 0 -10 3 -8 8 3 4 -1 12 -8 19 -10 9 -17 -6 -36
-78 -28 -109 -32 -117 -53 -100 -14 11 -16 11 -16 -5 -1 -16 -3 -15 -14 6 -13
22 -14 17 -21 -65 -21 -248 44 -443 214 -643 56 -66 132 -121 281 -202 152
-82 188 -118 256 -257 68 -140 84 -146 84 -30 0 104 -15 199 -39 246 -31 58
-105 128 -178 166 -227 118 -265 145 -358 258 -105 127 -147 242 -159 431 -3
44 0 75 9 92 11 23 14 24 18 7 3 -16 5 -15 15 7 10 23 11 22 11 -17 4 -209 91
-425 220 -541 54 -49 171 -122 243 -152 134 -56 227 -152 269 -278 22 -65 22
-77 23 -647 l1 -580 33 -3 34 -3 -5 603 c-5 667 -6 670 -71 772 -53 82 -116
132 -241 191 -193 90 -290 178 -360 321 -86 178 -95 371 -27 568 41 120 84
187 178 281 71 71 96 89 205 143 153 75 247 97 389 89 267 -15 483 -137 642
-364 85 -120 121 -244 122 -418 1 -283 -126 -468 -414 -607 -69 -33 -144 -76
-168 -95 -61 -50 -117 -138 -145 -229 l-25 -79 -6 -583 -5 -582 23 0 c13 0 28
6 34 13 8 9 13 193 16 573 5 463 8 569 21 619 37 139 111 215 299 310 114 56
148 79 219 146 47 43 97 100 112 125 35 60 79 166 94 230 11 46 15 50 40 50
34 0 35 -7 15 -104 -28 -132 -98 -258 -199 -355 -50 -48 -170 -124 -295 -187
-108 -54 -158 -103 -203 -199 l-39 -83 7 -222 c4 -121 10 -343 14 -492 6 -289
9 -304 57 -304 12 0 26 5 30 12 4 6 8 170 8 362 l1 351 31 65 c37 78 78 128
142 170 57 38 159 70 221 70 43 0 50 -4 80 -40 35 -44 92 -67 137 -56 43 11
90 65 99 114 20 120 -113 201 -209 128 -20 -15 -39 -38 -42 -51 -6 -23 -10
-25 -73 -25 -85 0 -150 -20 -225 -70 -78 -50 -137 -112 -169 -175 l-26 -50 -1
35 c0 19 10 64 22 99 34 95 87 148 211 212 144 73 222 126 296 200 111 110
183 242 222 405 18 76 20 108 16 219 -4 85 -13 157 -27 210 -25 96 -113 280
-168 353 -84 112 -231 250 -253 236 -7 -4 -10 -3 -6 2 3 5 -12 20 -34 32 -21
12 -39 18 -39 12 0 -6 -5 -8 -12 -4 -7 4 -8 3 -4 -4 4 -6 14 -9 24 -6 14 5 15
4 2 -5 -13 -10 -13 -12 0 -21 12 -7 10 -9 -7 -8 -12 1 -19 7 -16 15 4 11 -14
18 -39 14 -4 0 -31 10 -61 23 -29 13 -105 36 -169 50 -152 34 -283 34 -418 1z"/>
<path d="M2143 3889 c-148 -74 -239 -163 -311 -305 -87 -173 -95 -420 -18
-573 73 -144 149 -210 350 -305 163 -76 224 -136 282 -275 21 -51 24 -54 31
-31 13 48 63 131 105 176 58 62 105 93 218 143 136 61 183 94 251 177 103 126
139 228 139 393 0 101 -18 181 -61 268 -33 69 -82 114 -169 158 -99 50 -160
66 -220 59 -218 -24 -304 -58 -403 -159 -61 -62 -147 -203 -147 -242 0 -14 -2
-15 -9 -4 -5 7 -11 9 -13 5 -3 -5 -3 -3 -2 4 2 7 -1 23 -8 36 l-10 24 -38 -19
c-29 -15 -43 -17 -63 -10 -33 13 -61 55 -54 82 4 15 3 19 -4 12 -21 -21 -39
-148 -53 -365 -3 -62 -12 -69 -25 -21 -19 66 -25 212 -11 291 24 144 131 299
268 392 23 15 38 31 34 35 -4 3 -2 5 3 4 22 -6 56 13 50 29 -3 8 0 19 7 24 10
6 10 8 1 8 -21 0 -15 20 10 30 22 9 22 9 -4 9 -14 1 -71 -22 -126 -50z m787
-224 c36 -15 78 -39 94 -53 43 -41 115 -137 131 -176 19 -44 19 -100 1 -115
-8 -7 -15 -43 -18 -100 -4 -66 -12 -103 -31 -145 -14 -31 -31 -56 -36 -56 -14
0 -14 6 -1 30 7 13 7 21 -2 26 -7 5 -8 3 -3 -6 5 -9 4 -11 -3 -6 -8 5 -8 15
-1 32 8 22 7 25 -5 21 -11 -4 -13 -1 -9 11 6 15 5 15 -10 3 -9 -7 -17 -18 -17
-24 0 -24 -55 -79 -103 -103 -38 -20 -72 -28 -132 -31 -93 -6 -127 5 -193 62
-61 53 -86 112 -86 207 -1 42 -4 74 -8 72 -5 -3 -8 1 -8 9 0 8 -7 20 -16 28
-11 9 -14 23 -10 51 3 22 8 43 11 48 3 5 1 11 -4 15 -17 10 -64 -86 -78 -159
-17 -88 -4 -191 32 -252 36 -61 122 -141 185 -172 51 -25 64 -27 187 -27 113
0 130 -2 118 -14 -22 -22 -115 -51 -165 -51 -254 1 -466 223 -447 470 17 208
137 358 347 431 14 5 68 7 120 5 74 -3 109 -10 160 -31z m-810 -428 c0 -74 13
-149 35 -199 5 -14 2 -18 -13 -18 -13 0 -24 11 -32 31 -8 17 -22 39 -32 49
-21 19 -44 136 -34 175 5 20 38 41 69 44 4 1 7 -36 7 -82z m-156 -92 c5 -22 4
-26 -4 -15 -5 8 -10 24 -10 34 0 26 6 18 14 -19z m1082 -173 c-17 -16 -18 -16
-5 5 7 12 15 20 18 17 3 -2 -3 -12 -13 -22z"/>
<path d="M2664 3145 c10 -16 27 -38 38 -47 24 -22 77 -23 103 -4 18 13 18 14
-8 9 -40 -8 -72 3 -114 40 l-38 32 19 -30z"/>
<path d="M2847 3849 c7 -7 15 -10 18 -7 3 3 -2 9 -12 12 -14 6 -15 5 -6 -5z"/>
<path d="M2295 3784 c-88 -46 -169 -112 -245 -203 -29 -36 -37 -50 -23 -43 53
29 109 2 123 -58 l8 -35 1 41 c1 55 42 116 128 193 61 54 70 67 70 97 0 18 -3
34 -6 34 -3 0 -28 -12 -56 -26z"/>
<path d="M1740 2276 c0 -33 2 -36 30 -36 129 0 282 -80 345 -181 57 -90 59
-106 65 -494 5 -354 5 -360 26 -363 11 -2 28 6 38 17 16 18 18 39 17 208 -3
269 -17 499 -36 560 -36 120 -157 246 -282 293 -32 13 -91 25 -130 28 l-73 5
0 -37z"/>
<path d="M1547 2159 c7 -7 15 -10 18 -7 3 3 -2 9 -12 12 -14 6 -15 5 -6 -5z"/>
<path d="M1876 2099 c-48 -14 -66 -37 -66 -88 0 -56 20 -88 63 -99 32 -8 32
-9 38 -83 9 -104 25 -163 66 -241 45 -86 105 -122 141 -86 20 20 14 35 -23 58
-53 33 -85 81 -106 162 -28 107 -25 177 8 237 23 40 26 54 18 76 -18 51 -83
81 -139 64z m49 -31 c49 -22 41 -91 -12 -104 -36 -9 -78 17 -79 50 -1 14 3 26
7 26 5 0 9 6 9 14 0 8 10 17 23 19 12 2 23 5 24 6 1 0 14 -4 28 -11z"/>
<path d="M2949 2071 c-33 -33 -39 -82 -16 -129 11 -21 12 -52 6 -134 -10 -129
-34 -195 -90 -239 -33 -26 -37 -34 -29 -50 6 -10 21 -19 34 -19 78 0 156 164
156 327 0 69 1 73 23 73 32 0 67 27 83 66 21 49 17 72 -15 105 -24 24 -38 29
-76 29 -38 0 -52 -5 -76 -29z m113 -35 c14 -33 6 -52 -27 -60 -33 -8 -55 8
-55 40 0 44 63 60 82 20z"/>
<path d="M2440 1000 c-11 -11 -20 -26 -20 -33 0 -18 32 -47 51 -47 37 0 52 55
23 84 -20 21 -30 20 -54 -4z"/>
</g>
</svg>
