<svg width="26" height="24" viewBox="0 0 26 24" fill="none" xmlns="http://www.w3.org/2000/svg" class="icon-md" style="color: rgb(118, 208, 235);"><path fill-rule="evenodd" clip-rule="evenodd" d="M13.4544 4.10451C13.1689 3.95886 12.8309 3.95886 12.5455 4.10451L2.98609 8.98175L2.07715 7.20022L11.6365 2.32298C12.493 1.88603 13.5069 1.88603 14.3634 2.32298L23.9227 7.20022C24.7332 7.61373 25.091 8.44008 24.9999 9.2194V15C24.9999 15.5523 24.5522 16 23.9999 16C23.4477 16 22.9999 15.5523 22.9999 15V11.2156L20.9666 12.2115V16.3052C20.9666 17.409 20.3605 18.4237 19.3885 18.9468L14.4219 21.6203C13.5341 22.0981 12.4657 22.0981 11.578 21.6203L6.61135 18.9468C5.63941 18.4237 5.03328 17.409 5.03328 16.3052V12.2115L2.10635 10.7779C0.626202 10.0529 0.609039 7.94926 2.07715 7.20022L2.98608 8.98175L12.5601 13.671C12.8376 13.807 13.1623 13.807 13.4398 13.671L23 8.9885C23.0001 8.98394 23.0001 8.97938 23.0003 8.97483L13.4544 4.10451ZM7.03328 13.1911V16.3052C7.03328 16.6732 7.23532 17.0114 7.5593 17.1858L12.526 19.8592C12.8219 20.0185 13.178 20.0185 13.4739 19.8592L18.4406 17.1858C18.7646 17.0114 18.9666 16.6732 18.9666 16.3052V13.1911L14.3195 15.4672C13.4871 15.8749 12.5128 15.8749 11.6803 15.4672L7.03328 13.1911Z" fill="currentColor"></path></svg>