<svg width="24" height="24" viewBox="0 0 24 24" fill="none" xmlns="http://www.w3.org/2000/svg" class="icon-md" style="color: rgb(108, 113, 255);"><path fill-rule="evenodd" clip-rule="evenodd" d="M3 6C3 4.34315 4.34315 3 6 3H18C19.6569 3 21 4.34315 21 6V18C21 19.6569 19.6569 21 18 21H6C4.34315 21 3 19.6569 3 18V6ZM6 5C5.44772 5 5 5.44772 5 6V18C5 18.5523 5.44772 19 6 19H18C18.5523 19 19 18.5523 19 18V6C19 5.44772 18.5523 5 18 5H6ZM7.29289 9.29289C7.68342 8.90237 8.31658 8.90237 8.70711 9.29289L10.7071 11.2929C11.0976 11.6834 11.0976 12.3166 10.7071 12.7071L8.70711 14.7071C8.31658 15.0976 7.68342 15.0976 7.29289 14.7071C6.90237 14.3166 6.90237 13.6834 7.29289 13.2929L8.58579 12L7.29289 10.7071C6.90237 10.3166 6.90237 9.68342 7.29289 9.29289ZM12 14C12 13.4477 12.4477 13 13 13H16C16.5523 13 17 13.4477 17 14C17 14.5523 16.5523 15 16 15H13C12.4477 15 12 14.5523 12 14Z" fill="currentColor"></path></svg>