<svg width="24" height="24" viewBox="0 0 24 24" fill="none" xmlns="http://www.w3.org/2000/svg" class="icon-md" style="color: rgb(234, 132, 68);"><path fill-rule="evenodd" clip-rule="evenodd" d="M4 5C4 3.34315 5.34315 2 7 2H14.1716C14.9672 2 15.7303 2.31607 16.2929 2.87868L19.1213 5.70711C19.6839 6.26972 20 7.03278 20 7.82843V19C20 20.6569 18.6569 22 17 22H7C5.34315 22 4 20.6569 4 19V5ZM7 4C6.44772 4 6 4.44772 6 5V19C6 19.5523 6.44772 20 7 20H17C17.5523 20 18 19.5523 18 19V7.82843C18 7.56321 17.8946 7.30886 17.7071 7.12132L14.8787 4.29289C14.6911 4.10536 14.4368 4 14.1716 4H7ZM8 10C8 9.44772 8.44772 9 9 9H15C15.5523 9 16 9.44772 16 10C16 10.5523 15.5523 11 15 11H9C8.44772 11 8 10.5523 8 10ZM8 14C8 13.4477 8.44772 13 9 13H13C13.5523 13 14 13.4477 14 14C14 14.5523 13.5523 15 13 15H9C8.44772 15 8 14.5523 8 14Z" fill="currentColor"></path></svg>